<?xml version="1.0" ?><svg enable-background="new 0 0 32 32" version="1.1" viewBox="0 0 32 32" xml:space="preserve" xmlns="http://www.w3.org/2000/svg" xmlns:xlink="http://www.w3.org/1999/xlink"><g id="Outline_Color_copy_2"><path d="M28,1c1.654,0,3,1.346,3,3v24c0,1.654-1.346,3-3,3H4c-1.654,0-3-1.346-3-3V4c0-1.654,1.346-3,3-3H28 M28,0H4   C1.8,0,0,1.8,0,4v24c0,2.2,1.8,4,4,4h24c2.2,0,4-1.8,4-4V4C32,1.8,30.2,0,28,0L28,0z"/><path d="M18.76,10.36c0-1.424,2.862-2.162,2.862,0.246c-0.008,1.322-0.19,2.542-0.481,3.659h2.976   c0.226-1.348,0.217-2.681,0.217-4.251c0-4.422-8.333-5.158-8.333,0.444c0,3.933,1.893,6.003,3.873,7.094   C18.224,20.721,16,22.448,16,22.448c-6.224-4.963-5.622-13.366-5.622-13.366H7.667c0.051,11.352,6.176,15.331,6.93,15.922   c0.753,0.591,0.903,0.541,1.807,0.491c0.902-0.049,2.959-2.065,5.47-5.895c0.242-0.371,0.46-0.726,0.657-1.071   c1.051,0.23,1.802,0.235,1.802,0.235v-2.408C19.062,15.863,18.76,11.442,18.76,10.36z"/></g></svg>