<?xml version="1.0" encoding="utf-8"?>
<!-- Generator: Adobe Illustrator 19.2.1, SVG Export Plug-In . SVG Version: 6.00 Build 0)  -->
<svg version="1.1" id="Calque_1" xmlns="http://www.w3.org/2000/svg" xmlns:xlink="http://www.w3.org/1999/xlink" x="0px" y="0px"
	 viewBox="0 0 32 32" style="enable-background:new 0 0 32 32;" xml:space="preserve">
<style type="text/css">
	.st0{fill:#242C61;}
</style>
<g id="Outline_Color_copy_2">
	<path class="st0" d="M28,1c1.7,0,3,1.3,3,3v24c0,1.7-1.3,3-3,3H4c-1.7,0-3-1.3-3-3V4c0-1.7,1.3-3,3-3H28 M28,0H4C1.8,0,0,1.8,0,4
		v24c0,2.2,1.8,4,4,4h24c2.2,0,4-1.8,4-4V4C32,1.8,30.2,0,28,0L28,0z"/>
	<path class="st0" d="M24,12.5c0,4.7-2.6,8.1-6.4,8.1c-1.3,0-2.5-0.7-2.9-1.5c0,0-0.7,2.7-0.8,3.3c-0.5,1.9-2,3.7-2.1,3.9
		c-0.1,0.1-0.3,0.1-0.3-0.1c0-0.2-0.4-2.6,0-4.5c0.2-1,1.5-6.5,1.5-6.5s-0.4-0.8-0.4-1.9c0-1.8,1-3.1,2.3-3.1c1.1,0,1.6,0.8,1.6,1.8
		c0,1.1-0.7,2.7-1,4.2c-0.3,1.3,0.6,2.3,1.9,2.3c2.3,0,3.8-2.9,3.8-6.3c0-2.6-1.8-4.6-4.9-4.6c-3.6,0-5.8,2.7-5.8,5.7
		c0,1,0.3,1.8,0.8,2.3c0.2,0.3,0.3,0.4,0.2,0.7c-0.1,0.2-0.2,0.7-0.2,1c-0.1,0.3-0.3,0.4-0.6,0.3C8.8,16.9,8,15.1,8,13.1
		c0-3.4,2.8-7.4,8.5-7.4C21,5.7,24,8.9,24,12.5z"/>
</g>
</svg>
